<svg xmlns="http://www.w3.org/2000/svg" xml:space="preserve" fill-rule="evenodd" clip-rule="evenodd" image-rendering="optimizeQuality" shape-rendering="geometricPrecision" text-rendering="geometricPrecision" viewBox="0 0 2132 919.7">
  <g fill="#fff">
    <path fill-rule="nonzero" d="M1781.4 372c0 9-1.7 16.7-5.2 23.5a49.8 49.8 0 0 1-14.2 16.8c-6 4.4-13 7.8-21 10.1s-16.7 3.4-25.8 3.4a94.6 94.6 0 0 1-41.4-9.3 32.3 32.3 0 0 1-6-4c-1-1.1-2-2.8-2.5-5a67.6 67.6 0 0 1-.5-16c.3-1.8.5-3.2 1-4.4a5 5 0 0 1 1.6-2.4 4 4 0 0 1 2.5-.7c1.2 0 3 .7 5.4 2.2a83.3 83.3 0 0 0 22.3 9.6 64.2 64.2 0 0 0 29.7.6c3.5-1 6.5-2.4 9-4.2 2.4-1.8 4.3-4 5.6-6.8 1.3-2.6 2-5.6 2-9 0-3.8-1.2-7.1-3.4-9.8-2.2-2.8-5-5.2-8.7-7.4a89.6 89.6 0 0 0-12-6c-4.6-1.9-9.2-3.8-14-6-4.9-2-9.5-4.4-14-7.1a54.7 54.7 0 0 1-12.1-9.5 44 44 0 0 1-12-31.4 44.5 44.5 0 0 1 17.6-36.7c5.4-4 11.7-7.1 19-9.1a87.5 87.5 0 0 1 36-2.1 89 89 0 0 1 21.7 6 25 25 0 0 1 5.7 3.3c.9.8 1.5 1.6 1.8 2.2l.9 2.4.4 3.8a94.4 94.4 0 0 1-.7 16.5c-.4 1-.8 2-1.4 2.4-.6.6-1.4.8-2.4.8s-2.6-.6-4.9-1.8a81.5 81.5 0 0 0-19.4-8 50.8 50.8 0 0 0-24.3-.3 22 22 0 0 0-7.3 3.8c-2 1.6-3.5 3.5-4.5 5.8s-1.4 4.7-1.4 7.2c0 3.7 1 7 3.2 9.7 2.2 2.8 5.1 5.3 8.8 7.4 3.6 2.1 7.7 4.1 12.4 6l14 6c4.9 2 9.6 4.4 14.2 7.1a58 58 0 0 1 12.3 9.6 42.5 42.5 0 0 1 12 30.8zm-147.9-12.3a75 75 0 0 1-4.9 27.8 53.6 53.6 0 0 1-14.2 20.9c-6.2 5.7-14 10-23.2 13a103 103 0 0 1-31.7 4.4c-11.3 0-21.4-1.3-30.3-4a60 60 0 0 1-22.7-12 52.5 52.5 0 0 1-14.1-20.3 75 75 0 0 1-5-28.4v-103c0-1 .4-1.7 1-2.5a6 6 0 0 1 2.9-1.7 78.3 78.3 0 0 1 28.6 0c1.3.5 2.3 1 3 1.7.5.8.8 1.6.8 2.4v100.2a57 57 0 0 0 2.6 17.5 31.2 31.2 0 0 0 19.3 19.5c4.6 1.6 9.7 2.4 15.3 2.4 5.7 0 10.9-.8 15.3-2.5a31 31 0 0 0 18.8-19c1.7-4.7 2.6-10 2.6-16v-102c0-1 .2-1.7.8-2.5a6 6 0 0 1 2.9-1.7 79.7 79.7 0 0 1 28.5 0 6 6 0 0 1 2.8 1.7c.6.8.9 1.6.9 2.4v101.7zm-182.5-80c0 2.5-.1 4.7-.4 6.5a19 19 0 0 1-1 4.4c-.4 1.1-.9 1.9-1.5 2.3-.6.4-1.3.7-2.1.7-1.2 0-3.2-.9-5.8-2.4a117.5 117.5 0 0 0-26.5-10.3 86.8 86.8 0 0 0-21.3-2.4 63 63 0 0 0-23.5 4.3 51.2 51.2 0 0 0-29.4 30.8c-2.7 7.3-4 15.4-4 24.2 0 9.7 1.4 18.3 4 25.7a48 48 0 0 0 29 29.8 65.1 65.1 0 0 0 34.9 2.5c4-.9 7.7-2.2 11-4v-39.5h-33.8c-1.6 0-2.9-1-3.8-3a45 45 0 0 1-1-16.1c.2-1.6.5-3 1-4a6 6 0 0 1 1.6-2.2c.7-.5 1.4-.7 2.2-.7h60.4c1.5 0 2.8.2 4 .7a9.4 9.4 0 0 1 5 5.6c.4 1.4.7 3 .7 4.7V405c0 2.7-.5 5-1.5 7-1 1.9-3 3.5-6 4.6a124.6 124.6 0 0 1-24.8 6.7 138.7 138.7 0 0 1-29 2.6c-14.3 0-27-2-38.4-5.8a72.9 72.9 0 0 1-46.6-44 98.8 98.8 0 0 1-6.2-36c0-14 2.2-26.5 6.6-37.5a78.1 78.1 0 0 1 48.2-46 133.1 133.1 0 0 1 76.1-1 67 67 0 0 1 11.8 4.7c3.1 1.7 5.3 3.2 6.5 4.4a10 10 0 0 1 2.7 5.2c.6 2.2.8 5.5.8 9.9zm-206.6 58.2c0-9-.7-17-2.2-24.3-1.4-7.3-4-13.6-7.5-18.8a35.6 35.6 0 0 0-14.1-12 51 51 0 0 0-22-4.3 47 47 0 0 0-22.4 4.8c-6 3.2-10.8 7.5-14.5 12.8a51 51 0 0 0-7.8 18.6 129 129 0 0 0 0 47.6c1.4 7.4 4 13.7 7.4 19 3.5 5.2 8.2 9.2 14 12a52.9 52.9 0 0 0 22.3 4 47 47 0 0 0 22.3-4.7c6-3 10.8-7.4 14.5-12.8a52.4 52.4 0 0 0 7.8-19c1.5-7.1 2.2-14.8 2.2-23zm38.2-1.8c0 14-1.8 26.6-5.5 37.7a71 71 0 0 1-43.4 46 107 107 0 0 1-37.3 6 113 113 0 0 1-36.3-5.2 63.3 63.3 0 0 1-26-15.8c-6.8-7-12-16-15.5-27a130 130 0 0 1-5.2-38.7c0-13.7 1.9-26 5.6-37a71.4 71.4 0 0 1 43.4-45.6c10.7-4 23.2-6.1 37.4-6.1a115 115 0 0 1 35.8 5 63 63 0 0 1 41.7 42.5 123 123 0 0 1 5.3 38.2zm-180.4 72.4c0 2.6 0 4.8-.3 6.6a21 21 0 0 1-1 4.4c-.5 1.2-1 2-1.8 2.6a4 4 0 0 1-2.4.8h-81.9c-3 0-5.6-.9-7.6-2.6-2.1-1.7-3.2-4.5-3.2-8.3V258c0-.8.3-1.6 1-2.4.6-.6 1.5-1.2 3-1.7a79.8 79.8 0 0 1 28.8 0c1.2.5 2.2 1 2.8 1.7.7.8 1 1.6 1 2.4v136.4h56.1a4 4 0 0 1 2.4.7c.7.5 1.3 1.3 1.8 2.4.4 1 .8 2.5 1 4.3.2 1.8.3 4 .3 6.7zm30.9 256.9c1 3.1 1.7 5.6 2 7.4.3 1.9-.1 3.3-1 4.2-1 .9-2.7 1.5-5.2 1.7a210.3 210.3 0 0 1-20.5.1c-2.5-.1-4.3-.4-5.7-.8-1.3-.4-2.2-1-2.7-1.6-.6-.7-1-1.6-1.3-2.8l-11.1-34h-64l-10.7 33.1a9.9 9.9 0 0 1-1.4 3c-.5 1-1.4 1.6-2.7 2-1.2.6-3 .9-5.4 1a124 124 0 0 1-18.5 0c-2.3-.4-3.9-1-4.7-2-.9-1-1.2-2.4-1-4.3a46 46 0 0 1 2-7.3l52.2-150.5c.5-1.4 1.2-2.6 1.9-3.5.7-1 1.8-1.6 3.3-2.1 1.6-.5 3.7-.8 6.4-1a230.8 230.8 0 0 1 30.2 1 7 7 0 0 1 3.6 2.1 13 13 0 0 1 2 4l52.3 150.3zm-77.8-124.5h-.1l-23.6 72.1h47.5l-23.8-72.1zM1188 673.8a4 4 0 0 1-.8 2.3c-.5.6-1.4 1.2-2.7 1.6-1.3.4-3 .8-5 1a79.2 79.2 0 0 1-21-1c-1.3-.4-2.2-1-2.7-1.6-.6-.7-.8-1.5-.8-2.3V501.4c0-.9.2-1.6.8-2.4.5-.6 1.4-1.3 2.7-1.7 1.2-.5 3-.9 5-1.1a65.5 65.5 0 0 1 21 1.1 5 5 0 0 1 2.7 1.7c.5.8.8 1.5.8 2.4v172.4zm221.2 0a5 5 0 0 1-.5 2.4c-.4.7-1.2 1.2-2.5 1.7-1.3.4-3.2.7-5.7.8a155.3 155.3 0 0 1-19.1 0 19 19 0 0 1-5.2-1c-1.3-.4-2.2-1-2.7-1.8-.5-.7-1-1.6-1.3-2.7l-15.3-38a158 158 0 0 0-5.4-11.4 35.9 35.9 0 0 0-5.8-8.3 21.7 21.7 0 0 0-7.5-5 26 26 0 0 0-9.7-1.8h-10.8v64.8c0 .9-.2 1.7-.8 2.3a6 6 0 0 1-2.8 1.8 70.1 70.1 0 0 1-27.1 0c-1.4-.5-2.3-1-2.8-1.7s-.8-1.5-.8-2.4v-154c0-3.8 1-6.6 3-8.3 2-1.7 4.3-2.5 7.2-2.5h43.9a183.8 183.8 0 0 1 18.9.8c6.8 1 12.9 2.7 18.3 5a43.6 43.6 0 0 1 14 9.3c3.8 3.8 6.7 8.2 8.7 13.4a54 54 0 0 1 .8 33.4 40 40 0 0 1-16.7 22 57.2 57.2 0 0 1-14 6.6 38 38 0 0 1 13.4 10.8 60 60 0 0 1 5.6 8.6c1.7 3.1 3.4 6.8 5.1 10.8l14.4 33.5a63.8 63.8 0 0 1 3.2 10.9zm-44.5-115.2c0-5.5-1.3-10.3-3.8-14a20.7 20.7 0 0 0-12.5-8.2 82 82 0 0 0-15.2-1.4h-15.5v48h17.6c5 0 9.2-.6 12.8-1.8a25 25 0 0 0 9.3-5 21 21 0 0 0 5.5-7.6 26 26 0 0 0 1.8-10zm170 106c0 2.6 0 4.7-.2 6.5a21 21 0 0 1-1 4c-.5 1.1-1 1.9-1.7 2.4-.6.5-1.4.7-2.1.7h-85c-3 0-5.3-.8-7.3-2.5s-3-4.5-3-8.4V519.5c0-3.8 1-6.6 3-8.3 2-1.7 4.4-2.5 7.2-2.5h84.7c.7 0 1.4.2 2 .6.7.5 1.2 1.2 1.6 2.3.4 1.1.8 2.5 1 4.2a53.1 53.1 0 0 1-1 17 6 6 0 0 1-1.5 2.2c-.7.5-1.4.8-2.1.8h-60.5V577h51c.8 0 1.5.2 2.1.7.7.5 1.2 1.2 1.6 2.2.5 1 .8 2.3 1 4a48.6 48.6 0 0 1-1 16.5c-.4 1-1 1.8-1.6 2.2-.6.4-1.3.7-2.2.7h-51V651h61c.8 0 1.5.2 2.1.7.7.5 1.2 1.3 1.7 2.4.4 1 .7 2.4 1 4 .2 1.8.3 4 .3 6.5zm128.6-37.3a49.3 49.3 0 0 1-18.5 40.3 60 60 0 0 1-20 10.2 84.5 84.5 0 0 1-40.7 1.9c-5-1-9.4-2.2-13.2-3.5a60.4 60.4 0 0 1-9.7-4.3 30.6 30.6 0 0 1-5.6-4 9.8 9.8 0 0 1-2.4-5 71.3 71.3 0 0 1-.4-16c.1-1.8.4-3.3.8-4.5.4-1 1-1.9 1.6-2.4.6-.5 1.4-.7 2.3-.7 1.2 0 3 .7 5.2 2.2a76.5 76.5 0 0 0 21.2 9.6 58 58 0 0 0 28 .7c3.4-1 6.2-2.4 8.5-4.3 2.4-1.8 4.1-4 5.4-6.7a22 22 0 0 0 1.8-9c0-3.8-1-7.2-3.1-9.9a30.6 30.6 0 0 0-8.3-7.3 83.2 83.2 0 0 0-11.5-6l-13.2-6c-4.5-2.1-9-4.5-13.2-7.2a52.3 52.3 0 0 1-11.5-9.5 44.2 44.2 0 0 1-11.4-31.4 44 44 0 0 1 16.7-36.7c5.2-4 11.1-7 18-9.1a78.9 78.9 0 0 1 34.2-2 80.5 80.5 0 0 1 20.6 6 23 23 0 0 1 5.3 3.2c.9.9 1.5 1.7 1.8 2.2l.8 2.5.4 3.8a99.6 99.6 0 0 1-.7 16.4c-.3 1.1-.8 2-1.3 2.5-.6.5-1.3.8-2.3.8-1 0-2.5-.7-4.6-1.9-2-1.2-4.7-2.5-7.7-4a81.3 81.3 0 0 0-10.7-3.9 45.8 45.8 0 0 0-23-.4 20 20 0 0 0-7 3.8 14.6 14.6 0 0 0-4.2 5.8c-1 2.3-1.4 4.7-1.4 7.2 0 3.8 1 7 3 9.8 2.1 2.8 5 5.2 8.4 7.4 3.4 2 7.3 4 11.7 6a997 997 0 0 1 13.4 5.9c4.6 2.1 9 4.5 13.4 7.1 4.3 2.7 8.2 6 11.7 9.6a44.5 44.5 0 0 1 11.4 30.8zm178.6-35.8c0 14-1.8 26.6-5.3 37.7a75.2 75.2 0 0 1-15.6 28.2 67 67 0 0 1-25.5 17.7c-10.2 4-22 6-35.4 6a104 104 0 0 1-34.4-5.1 59.6 59.6 0 0 1-39.3-42.8 136 136 0 0 1-5-38.7c0-13.7 1.8-26 5.3-37a75 75 0 0 1 15.6-28 67.5 67.5 0 0 1 25.5-17.6c10.2-4.1 22-6.2 35.5-6.2 12.8 0 24.1 1.7 34 5.1 9.8 3.4 18 8.6 24.6 15.7 6.6 7.1 11.6 16 15 26.8a131 131 0 0 1 5 38.2zm-36.3 1.7c0-8.9-.7-17-2-24.3a52.2 52.2 0 0 0-7.2-18.7 34.3 34.3 0 0 0-13.4-12 46.3 46.3 0 0 0-21-4.3 39 39 0 0 0-35 17.6 55.1 55.1 0 0 0-7.2 18.6 135.7 135.7 0 0 0 0 47.6 54.1 54.1 0 0 0 7 19c3.3 5.2 7.8 9.1 13.3 12a47.9 47.9 0 0 0 21.1 4 38 38 0 0 0 35-17.6 54 54 0 0 0 7.3-18.9c1.4-7.2 2.1-14.9 2.1-23zm191.2 80.6a5 5 0 0 1-.6 2.4c-.3.7-1.1 1.2-2.4 1.7-1.4.4-3.3.7-5.8.8a155.3 155.3 0 0 1-19.1 0 19 19 0 0 1-5.2-1c-1.2-.4-2.1-1-2.7-1.8-.5-.7-1-1.6-1.3-2.7l-15.3-38c-1.8-4.2-3.6-8-5.3-11.4a36 36 0 0 0-5.9-8.3 21.7 21.7 0 0 0-7.5-5 26 26 0 0 0-9.7-1.8h-10.7v64.8c0 .9-.3 1.7-.9 2.3a6 6 0 0 1-2.8 1.8 70.1 70.1 0 0 1-27.1 0c-1.3-.5-2.3-1-2.8-1.7s-.8-1.5-.8-2.4v-154c0-3.8 1-6.6 3-8.3 2-1.7 4.4-2.5 7.2-2.5h44a183.8 183.8 0 0 1 18.8.8 75 75 0 0 1 18.4 5 43.6 43.6 0 0 1 13.9 9.3c3.8 3.8 6.7 8.2 8.7 13.4a50 50 0 0 1 3 18c0 5.5-.7 10.7-2.2 15.4a40 40 0 0 1-16.7 22 57.2 57.2 0 0 1-14 6.6 38 38 0 0 1 13.4 10.8 60 60 0 0 1 5.6 8.6 84 84 0 0 1 5.1 10.8l14.4 33.5c1.3 3.3 2.2 5.7 2.6 7.3.4 1.5.7 2.7.7 3.6zm-44.6-115.2a24 24 0 0 0-3.8-14 20.7 20.7 0 0 0-12.5-8.2 82 82 0 0 0-15.2-1.4h-15.4v48h17.5c5 0 9.2-.6 12.9-1.8 3.7-1.2 6.7-2.8 9.2-5 2.4-2 4.3-4.7 5.5-7.6a26 26 0 0 0 1.8-10zm179.8-35.8c0 2.5 0 4.7-.3 6.5a17 17 0 0 1-1 4.3 5 5 0 0 1-1.6 2.4c-.7.6-1.4.8-2.2.8h-42.4v136.7c0 .9-.2 1.7-.8 2.4-.6.7-1.5 1.2-2.8 1.7a71.7 71.7 0 0 1-27.3 0c-1.3-.5-2.3-1-2.8-1.7-.6-.7-.9-1.5-.9-2.4V536.8h-42.4a3 3 0 0 1-2.2-.8 6 6 0 0 1-1.6-2.4 23 23 0 0 1-1-4.3 54.9 54.9 0 0 1 1-17.6c.5-1 1-1.8 1.6-2.3.6-.5 1.4-.7 2.2-.7H2127c.8 0 1.5.2 2.2.7.6.5 1.2 1.2 1.6 2.3a15 15 0 0 1 1 4.4c.2 1.9.3 4 .3 6.7z"/>
    <path d="M259.4 482.8c3.8-10 10.9-14.7 20.6-21 85.9-54.8 175.3 53 100.8 102 28.4-25.8 29.9-76.4-8-97.2-32.6-17.8-69.8-11.3-98.5 13.5l-9 8-1.8 1.4-7.3 15.4c-20.6 42.9 3.4 92.4 44.4 117 97.2 58.6 228-56.1 164.2-180.3a157.4 157.4 0 0 0-119.4-83.8c-121-18.1-219 66.4-229 172.2-5.7 61.6 15 119.2 41.4 159.7C287.6 888.6 579.3 810.2 669 626.2 787.7 382.8 588.6 61.4 277.4 68.6l18.2 202.7C148 276 31.8 374.8 5 512.5l-1.4 6.7-3.5 9V598l17.6 66c38.4 114 147.2 208.3 263.8 241.6 14.5 4 64 11 70.7 14.1H423c26.8-11.9 134 1.6 265.4-135 66.4-69 111-179.7 121.2-282.2 19.2-192.2-81-371-231.6-465.7C565.5 29 519.5 6.3 513 0h-4l-33.8 98.3c85.7 36 172.3 126.7 210.3 210.8 52 115 60.8 225.5 2.1 338.3-41 79-127.7 161.3-237 183C318.8 856.6 201.9 795 149 725.1c-117-154.7-62.4-345.5 110.3-391 61-16 125.4-4.6 168.8 26.4 99.4 71 104.4 215.3 8 273.5-55 33.2-114.9 29.9-160.6-6-46.5-36.4-50.6-113.7-20.1-142.3 2.6-2.5 2.2-1.9 4-3z"/>
  </g>
</svg>
